<svg width="101" height="48" viewBox="0 0 101 48" fill="none" xmlns="http://www.w3.org/2000/svg">
<path d="M0.790009 28.79H3.79001V43.5H0.790009V28.79Z" fill="#394149"/>
<path d="M5.52999 38.46C5.52802 37.4034 5.83952 36.37 6.42508 35.4905C7.01065 34.6111 7.84394 33.9251 8.81953 33.5194C9.79511 33.1137 10.8691 33.0065 11.9056 33.2114C12.9422 33.4163 13.8946 33.9241 14.6424 34.6705C15.3902 35.4169 15.8998 36.3684 16.1066 37.4045C16.3135 38.4407 16.2083 39.5149 15.8045 40.4912C15.4006 41.4675 14.7162 42.3021 13.8378 42.8893C12.9594 43.4766 11.9266 43.79 10.87 43.79C10.1674 43.798 9.47018 43.6657 8.81934 43.4008C8.1685 43.1359 7.57707 42.7438 7.07973 42.2474C6.5824 41.751 6.18914 41.1603 5.92303 40.5099C5.65692 39.8596 5.52329 39.1627 5.52999 38.46V38.46ZM13.19 38.46C13.1782 38.0039 13.0322 37.5614 12.7702 37.1878C12.5082 36.8143 12.1419 36.5263 11.717 36.3599C11.2922 36.1934 10.8277 36.156 10.3817 36.2521C9.93571 36.3483 9.52796 36.5739 9.20948 36.9006C8.89099 37.2273 8.67592 37.6407 8.59116 38.089C8.50639 38.5373 8.55571 39.0007 8.73293 39.4211C8.91015 39.8416 9.20741 40.2004 9.58753 40.4528C9.96764 40.7052 10.4137 40.8398 10.87 40.84C11.1822 40.8487 11.4928 40.7927 11.7822 40.6754C12.0716 40.5581 12.3336 40.382 12.5516 40.1584C12.7696 39.9348 12.9388 39.6684 13.0487 39.3761C13.1586 39.0838 13.2067 38.7718 13.19 38.46V38.46Z" fill="#394149"/>
<path d="M28.27 33.42V43C28.27 46.39 25.62 47.82 22.94 47.82C21.9976 47.8901 21.054 47.6995 20.2127 47.2691C19.3714 46.8388 18.6647 46.1852 18.17 45.38L20.75 43.89C20.9547 44.3027 21.2787 44.6444 21.6798 44.8708C22.081 45.0972 22.5409 45.198 23 45.16C23.3021 45.2104 23.6118 45.1906 23.905 45.1024C24.1983 45.0141 24.4674 44.8597 24.6916 44.651C24.9158 44.4423 25.089 44.1849 25.198 43.8986C25.3069 43.6124 25.3487 43.3049 25.32 43V42.07C24.9673 42.5039 24.5173 42.8486 24.0065 43.0762C23.4957 43.3038 22.9385 43.4079 22.38 43.38C21.0221 43.38 19.7198 42.8406 18.7596 41.8804C17.7994 40.9202 17.26 39.6179 17.26 38.26C17.26 36.9021 17.7994 35.5998 18.7596 34.6396C19.7198 33.6794 21.0221 33.14 22.38 33.14C22.9382 33.1145 23.4946 33.2196 24.005 33.4471C24.5154 33.6745 24.9657 34.0179 25.32 34.45V33.45L28.27 33.42ZM25.32 38.26C25.3399 37.7737 25.214 37.2924 24.9583 36.8783C24.7026 36.4641 24.3288 36.1358 23.8851 35.9357C23.4414 35.7356 22.948 35.6728 22.4683 35.7553C21.9885 35.8379 21.5445 36.062 21.1932 36.399C20.8419 36.7359 20.5993 37.1702 20.4968 37.646C20.3943 38.1218 20.4364 38.6175 20.6178 39.0692C20.7991 39.5209 21.1115 39.908 21.5146 40.1808C21.9177 40.4536 22.3932 40.5996 22.88 40.6C23.1977 40.6225 23.5166 40.5781 23.8161 40.4699C24.1157 40.3616 24.3892 40.1917 24.6191 39.9713C24.849 39.7508 25.0301 39.4846 25.1508 39.1899C25.2715 38.8951 25.3292 38.5784 25.32 38.26V38.26Z" fill="#394149"/>
<path d="M30 38.46C29.998 37.4034 30.3095 36.37 30.8951 35.4905C31.4807 34.6111 32.314 33.9251 33.2895 33.5194C34.2651 33.1137 35.3391 33.0065 36.3756 33.2114C37.4122 33.4163 38.3646 33.9241 39.1124 34.6705C39.8602 35.4169 40.3698 36.3684 40.5767 37.4045C40.7835 38.4407 40.6783 39.5149 40.2745 40.4912C39.8706 41.4675 39.1862 42.3021 38.3078 42.8893C37.4294 43.4766 36.3966 43.79 35.34 43.79C34.6374 43.798 33.9402 43.6657 33.2893 43.4008C32.6385 43.1359 32.0471 42.7438 31.5497 42.2474C31.0524 41.751 30.6592 41.1603 30.393 40.5099C30.1269 39.8596 29.9933 39.1627 30 38.46V38.46ZM37.66 38.46C37.6482 38.0039 37.5022 37.5614 37.2402 37.1878C36.9782 36.8143 36.6119 36.5263 36.187 36.3599C35.7622 36.1934 35.2977 36.156 34.8517 36.2521C34.4057 36.3483 33.998 36.5739 33.6795 36.9006C33.361 37.2273 33.1459 37.6407 33.0612 38.089C32.9764 38.5373 33.0257 39.0007 33.2029 39.4211C33.3802 39.8416 33.6774 40.2004 34.0575 40.4528C34.4377 40.7052 34.8837 40.8398 35.34 40.84C35.6505 40.8459 35.9589 40.7878 36.246 40.6693C36.533 40.5507 36.7925 40.3742 37.0084 40.1509C37.2242 39.9276 37.3916 39.6622 37.5003 39.3713C37.609 39.0803 37.6565 38.7701 37.64 38.46H37.66Z" fill="#394149"/>
<path d="M42.07 30.72C42.07 30.36 42.1767 30.0082 42.3767 29.7089C42.5767 29.4096 42.861 29.1763 43.1935 29.0385C43.5261 28.9008 43.892 28.8647 44.2451 28.935C44.5981 29.0052 44.9224 29.1785 45.1769 29.4331C45.4315 29.6876 45.6048 30.0119 45.675 30.3649C45.7453 30.718 45.7092 31.0839 45.5715 31.4165C45.4337 31.749 45.2004 32.0333 44.9011 32.2333C44.6018 32.4333 44.25 32.54 43.89 32.54C43.4081 32.5374 42.9467 32.3448 42.606 32.004C42.2652 31.6633 42.0726 31.2019 42.07 30.72ZM42.38 33.42H45.38V43.5H42.38V33.42Z" fill="#394149"/>
<path d="M58.46 38.46C58.4964 39.1263 58.4006 39.7932 58.1782 40.4224C57.9558 41.0515 57.6111 41.6304 57.164 42.1258C56.717 42.6212 56.1763 43.0233 55.5732 43.3089C54.9702 43.5945 54.3165 43.758 53.65 43.79C53.0904 43.8169 52.5318 43.7206 52.0134 43.5081C51.4951 43.2956 51.0297 42.9719 50.65 42.56V47.56H47.65V33.42H50.65V34.37C51.0297 33.958 51.4951 33.6344 52.0134 33.4219C52.5318 33.2094 53.0904 33.1131 53.65 33.14C54.3156 33.172 54.9684 33.3352 55.5708 33.6202C56.1732 33.9051 56.7134 34.3063 57.1603 34.8006C57.6073 35.295 57.9522 35.8727 58.1752 36.5007C58.3982 37.1287 58.495 37.7945 58.46 38.46V38.46ZM55.46 38.46C55.4481 37.9906 55.2988 37.5351 55.0306 37.1497C54.7624 36.7644 54.3871 36.4662 53.9511 36.292C53.5151 36.1178 53.0375 36.0754 52.5777 36.1699C52.1178 36.2644 51.6957 36.4917 51.3637 36.8237C51.0317 37.1557 50.8044 37.5778 50.7099 38.0377C50.6154 38.4975 50.6578 38.9751 50.832 39.4111C51.0062 39.8471 51.3044 40.2224 51.6897 40.4906C52.0751 40.7588 52.5307 40.9081 53 40.92C53.3276 40.9408 53.6558 40.8913 53.9626 40.7747C54.2694 40.6582 54.5477 40.4773 54.7789 40.2443C55.01 40.0113 55.1886 39.7315 55.3026 39.4237C55.4166 39.116 55.4635 38.7874 55.44 38.46H55.46Z" fill="#394149"/>
<path d="M67.8 40.48C67.8 42.8 65.8 43.79 63.6 43.79C62.7212 43.8678 61.8391 43.6808 61.0675 43.2531C60.2958 42.8254 59.6698 42.1765 59.27 41.39L61.89 39.9C61.9964 40.2638 62.224 40.5802 62.5351 40.7966C62.8462 41.0131 63.2219 41.1166 63.6 41.09C64.33 41.09 64.69 40.86 64.69 40.46C64.69 39.35 59.69 39.94 59.69 36.46C59.69 34.26 61.55 33.15 63.69 33.15C64.4797 33.126 65.2614 33.3136 65.9542 33.6934C66.6469 34.0732 67.2255 34.6313 67.63 35.31L65 36.69C64.8838 36.4259 64.6935 36.2012 64.452 36.0432C64.2106 35.8852 63.9285 35.8007 63.64 35.8C63.12 35.8 62.8 36 62.8 36.37C62.84 37.52 67.8 36.75 67.8 40.48Z" fill="#394149"/>
<path d="M78.84 33.42V43.5H75.84V42.56C75.491 42.9777 75.0481 43.3068 74.5476 43.5206C74.0471 43.7344 73.503 43.8267 72.96 43.79C70.96 43.79 69.19 42.34 69.19 39.61V33.42H72.19V39.17C72.1636 39.415 72.1921 39.6629 72.2735 39.8955C72.3548 40.1282 72.4869 40.3398 72.6602 40.515C72.8335 40.6902 73.0437 40.8247 73.2754 40.9086C73.5072 40.9924 73.7547 41.0237 74 41C75.1 41 75.87 40.36 75.87 38.93V33.42H78.84Z" fill="#394149"/>
<path d="M96.18 37.32V43.5H93.18V37.58C93.18 36.58 92.69 35.92 91.73 35.92C90.77 35.92 90.15 36.63 90.15 37.82V43.5H87.15V37.58C87.15 36.58 86.67 35.92 85.7 35.92C84.73 35.92 84.13 36.63 84.13 37.82V43.5H81.13V33.42H84.13V34.35C84.4435 33.9393 84.8548 33.6134 85.3263 33.4021C85.7979 33.1908 86.3148 33.1007 86.83 33.14C87.3474 33.1149 87.8625 33.2242 88.3252 33.4573C88.7878 33.6903 89.1822 34.0392 89.47 34.47C89.8047 34.0196 90.248 33.6614 90.7587 33.4288C91.2693 33.1962 91.8305 33.0969 92.39 33.14C94.67 33.14 96.18 34.8 96.18 37.32Z" fill="#394149"/>
<path d="M98.74 33.36C99.9771 33.36 100.98 32.3571 100.98 31.12C100.98 29.8829 99.9771 28.88 98.74 28.88C97.5029 28.88 96.5 29.8829 96.5 31.12C96.5 32.3571 97.5029 33.36 98.74 33.36Z" fill="#394149"/>
<path d="M34.74 21.16C40.5335 21.16 45.23 16.4635 45.23 10.67C45.23 4.87653 40.5335 0.18 34.74 0.18C28.9465 0.18 24.25 4.87653 24.25 10.67C24.25 16.4635 28.9465 21.16 34.74 21.16Z" fill="#394149"/>
<path d="M58.19 21.16C63.9835 21.16 68.68 16.4635 68.68 10.67C68.68 4.87653 63.9835 0.18 58.19 0.18C52.3965 0.18 47.7 4.87653 47.7 10.67C47.7 16.4635 52.3965 21.16 58.19 21.16Z" fill="#394149"/>
<path d="M21.78 0.18H0.809998V21.15H21.78V0.18Z" fill="#394149"/>
</svg>
